# xmcd CD database file
#
# Track frame offsets:
#	150
#	13500
#	24955
#	39495
#	51907
#	62457
#	73225
#	85160
#	99090
#	111792
#	124225
#	137707
#	147922
#	163642
#	177542
#	189565
#	199075
#	209345
#	221775
#	234162
#	246597
#	257572
#	270525
#	280560
#	292970
#
# Disc length: 4013 seconds
#
# Revision: 0
# Processed by: cddbd v1.4PL0 Copyright (c) Steve Scherf et al.
# Submitted via: Feurio! 1.66 - http://www.feurio.com
#
DISCID=6e0fab19
DTITLE=Dean MARTIN - Dino - The golden years - 2/4
DYEAR=1900
DGENRE=Country
TTITLE0=My shoes keep walking back to you
TTITLE1=I'm gonna change everything
TTITLE2=Crying time
TTITLE3=Once a day
TTITLE4=Ain't gonna try anymore
TTITLE5=Any time
TTITLE6=I'll hold you in my heart (till I can hold you in my arms again)
TTITLE7=Candy kisses
TTITLE8=The middle of the night is my cryin' time
TTITLE9=Detour
TTITLE10=Bouquet of roses
TTITLE11=Nobody but a fool
TTITLE12=Make it rain
TTITLE13=If you ever get around to loving me
TTITLE14=Pride
TTITLE15=Just a little lovin'
TTITLE16=You're the reason I'm in love
TTITLE17=The sneaky little side of me
TTITLE18=If I ever get back to Georgia
TTITLE19=One cup of happiness (and one peace of mind)
TTITLE20=Hammer and nails
TTITLE21=Down home
TTITLE22=Everybody but me
TTITLE23=Bumming around
TTITLE24=Blue blue day
EXTD=
EXTT0=
EXTT1=
EXTT2=
EXTT3=
EXTT4=
EXTT5=
EXTT6=
EXTT7=
EXTT8=
EXTT9=
EXTT10=
EXTT11=
EXTT12=
EXTT13=
EXTT14=
EXTT15=
EXTT16=
EXTT17=
EXTT18=
EXTT19=
EXTT20=
EXTT21=
EXTT22=
EXTT23=
EXTT24=
PLAYORDER=
